<svg width="20" height="20" viewBox="0 0 20 20" fill="none" xmlns="http://www.w3.org/2000/svg">
<path fill-rule="evenodd" clip-rule="evenodd" d="M2.28369 10C2.28369 9.56282 2.63813 9.20837 3.07536 9.20837H17.3254C17.7626 9.20837 18.117 9.56282 18.117 10C18.117 10.4373 17.7626 10.7917 17.3254 10.7917H3.07536C2.63813 10.7917 2.28369 10.4373 2.28369 10Z" fill="#A7A7A7"/>
<path fill-rule="evenodd" clip-rule="evenodd" d="M2.28369 5.25004C2.28369 4.81282 2.63813 4.45837 3.07536 4.45837H17.3254C17.7626 4.45837 18.117 4.81282 18.117 5.25004C18.117 5.68727 17.7626 6.04171 17.3254 6.04171H3.07536C2.63813 6.04171 2.28369 5.68727 2.28369 5.25004Z" fill="#A7A7A7"/>
<path fill-rule="evenodd" clip-rule="evenodd" d="M2.28369 14.75C2.28369 14.3128 2.63813 13.9584 3.07536 13.9584H17.3254C17.7626 13.9584 18.117 14.3128 18.117 14.75C18.117 15.1873 17.7626 15.5417 17.3254 15.5417H3.07536C2.63813 15.5417 2.28369 15.1873 2.28369 14.75Z" fill="#A7A7A7"/>
</svg>
