<svg width="20" height="20" viewBox="0 0 20 20" fill="none" xmlns="http://www.w3.org/2000/svg">
<path fill-rule="evenodd" clip-rule="evenodd" d="M3.72268 2.875C3.36495 2.875 3.07495 3.165 3.07495 3.52273V8.70455C3.07495 9.06228 3.36495 9.35227 3.72268 9.35227H8.9045C9.26223 9.35227 9.55222 9.06228 9.55222 8.70455V3.52273C9.55222 3.165 9.26223 2.875 8.9045 2.875H3.72268ZM4.37041 8.05682V4.17045H8.25677V8.05682H4.37041ZM11.4954 2.875C11.1377 2.875 10.8477 3.165 10.8477 3.52273V8.70455C10.8477 9.06228 11.1377 9.35227 11.4954 9.35227H16.6772C17.035 9.35227 17.325 9.06228 17.325 8.70455V3.52273C17.325 3.165 17.035 2.875 16.6772 2.875H11.4954ZM12.1431 8.05682V4.17045H16.0295V8.05682H12.1431ZM3.07495 11.2955C3.07495 10.9377 3.36495 10.6477 3.72268 10.6477H8.9045C9.26223 10.6477 9.55222 10.9377 9.55222 11.2955V16.4773C9.55222 16.835 9.26223 17.125 8.9045 17.125H3.72268C3.36495 17.125 3.07495 16.835 3.07495 16.4773V11.2955ZM4.37041 11.9432V15.8295H8.25677V11.9432H4.37041ZM11.4954 10.6477C11.1377 10.6477 10.8477 10.9377 10.8477 11.2955V16.4773C10.8477 16.835 11.1377 17.125 11.4954 17.125H16.6772C17.035 17.125 17.325 16.835 17.325 16.4773V11.2955C17.325 10.9377 17.035 10.6477 16.6772 10.6477H11.4954ZM12.1431 15.8295V11.9432H16.0295V15.8295H12.1431Z" fill="#A7A7A7"/>
</svg>
