<svg width="139" height="20" viewBox="0 0 139 20" fill="none" xmlns="http://www.w3.org/2000/svg">
<path d="M0 11.6883C0 9.24675 0.182882 7.27273 0.548644 5.76623C0.93031 4.24242 1.55052 3.05628 2.40926 2.20779C3.28392 1.34199 4.42891 0.761905 5.84426 0.467533C7.2596 0.155844 9.0089 0 11.0922 0C11.3943 0 11.609 0.181819 11.7362 0.545455C11.8634 0.891775 11.9271 1.22944 11.9271 1.55844C11.9271 1.88745 11.8634 2.23377 11.7362 2.5974C11.609 2.94372 11.3943 3.11688 11.0922 3.11688C9.31105 3.11688 7.90366 3.22944 6.86998 3.45455C5.83631 3.67965 5.05707 3.93939 4.53228 4.23377C4.00749 4.52814 3.67353 4.83117 3.53041 5.14286C3.40319 5.45455 3.33958 5.68831 3.33958 5.84416C3.33958 6.25974 3.4668 6.46753 3.72124 6.46753C3.94388 6.46753 4.27784 6.38961 4.72311 6.23377C5.16839 6.06061 5.74089 5.97403 6.44061 5.97403C7.39477 5.97403 8.26147 6.14719 9.04071 6.49351C9.83584 6.82251 10.5197 7.2987 11.0922 7.92208C11.6647 8.54546 12.102 9.29004 12.4041 10.1558C12.7222 11.0043 12.8812 11.9481 12.8812 12.987C12.8812 14.026 12.7222 14.9784 12.4041 15.8442C12.102 16.6926 11.6647 17.4286 11.0922 18.0519C10.5197 18.6753 9.83584 19.1515 9.04071 19.4805C8.26147 19.8268 7.39477 20 6.44061 20C5.48644 20 4.61179 19.8355 3.81666 19.5065C3.03742 19.1948 2.36156 18.7013 1.78906 18.026C1.21656 17.3506 0.771283 16.4935 0.453228 15.4545C0.151076 14.3983 0 13.1429 0 11.6883ZM3.10103 12.987C3.10103 14.4242 3.38728 15.4372 3.95978 16.026C4.53228 16.5974 5.35922 16.8831 6.44061 16.8831C7.522 16.8831 8.34894 16.5974 8.92144 16.026C9.49394 15.4372 9.78018 14.4242 9.78018 12.987C9.78018 11.5498 9.49394 10.5455 8.92144 9.97403C8.34894 9.38528 7.522 9.09091 6.44061 9.09091C5.35922 9.09091 4.53228 9.38528 3.95978 9.97403C3.38728 10.5455 3.10103 11.5498 3.10103 12.987Z" fill="url(#paint0_linear_31779_1561)"/>
<path d="M16.4015 6.23377C16.5446 6.23377 16.7195 6.25108 16.9263 6.28572C17.133 6.32035 17.3318 6.37229 17.5226 6.44156C17.7134 6.51082 17.8725 6.60606 17.9997 6.72727C18.1269 6.84849 18.1905 6.98701 18.1905 7.14286C18.1905 7.62771 18.1826 8.08658 18.1667 8.51948C18.1508 8.93507 18.1349 9.36797 18.119 9.81818C18.119 10.2684 18.111 10.7446 18.0951 11.2468C18.0792 11.7489 18.0712 12.329 18.0712 12.987C18.0712 14.4242 18.3177 15.4372 18.8107 16.026C19.3037 16.5974 20.0909 16.8831 21.1723 16.8831C22.2537 16.8831 23.0409 16.5974 23.5338 16.026C24.0268 15.4372 24.2733 14.4242 24.2733 12.987C24.2733 12.329 24.2654 11.7489 24.2495 11.2468C24.2336 10.7446 24.2177 10.2684 24.2018 9.81818C24.2018 9.36797 24.1938 8.93507 24.1779 8.51948C24.162 8.08658 24.154 7.62771 24.154 7.14286C24.154 6.98701 24.2177 6.84849 24.3449 6.72727C24.4721 6.60606 24.6311 6.51082 24.822 6.44156C25.0128 6.37229 25.2116 6.32035 25.4183 6.28572C25.6251 6.25108 25.8 6.23377 25.9431 6.23377C26.0862 6.23377 26.2612 6.25108 26.4679 6.28572C26.6746 6.32035 26.8734 6.37229 27.0642 6.44156C27.2551 6.51082 27.4141 6.60606 27.5413 6.72727C27.6686 6.84849 27.7322 6.98701 27.7322 7.14286C27.7322 7.62771 27.7163 8.08658 27.6845 8.51948C27.6686 8.93507 27.6447 9.36797 27.6129 9.81818C27.5811 10.2684 27.5493 10.7446 27.5175 11.2468C27.5016 11.7489 27.4936 12.329 27.4936 12.987C27.4936 13.5411 27.5016 14.0519 27.5175 14.5195C27.5334 14.987 27.5493 15.4459 27.5652 15.8961C27.597 16.329 27.6208 16.7619 27.6367 17.1948C27.6686 17.6277 27.6924 18.0866 27.7083 18.5714C27.7242 18.8831 27.6447 19.1342 27.4698 19.3247C27.2948 19.5152 27.0642 19.5931 26.778 19.5584C26.5872 19.5411 26.4122 19.5238 26.2532 19.5065C26.1101 19.4892 25.9272 19.4805 25.7046 19.4805C25.1639 19.4805 24.6868 19.5065 24.2733 19.5584C23.8757 19.6104 23.502 19.671 23.1522 19.7403C22.8182 19.8095 22.4922 19.8701 22.1742 19.9221C21.872 19.974 21.538 20 21.1723 20C20.2181 20 19.3435 19.8268 18.5483 19.4805C17.7691 19.1515 17.0932 18.6753 16.5207 18.0519C15.9482 17.4286 15.503 16.6926 15.1849 15.8442C14.8827 14.9784 14.7317 14.026 14.7317 12.987C14.7317 12.329 14.7237 11.7489 14.7078 11.2468C14.6919 10.7446 14.676 10.2684 14.6601 9.81818C14.6601 9.36797 14.6522 8.93507 14.6363 8.51948C14.6204 8.08658 14.6124 7.62771 14.6124 7.14286C14.6124 6.98701 14.676 6.84849 14.8032 6.72727C14.9305 6.60606 15.0895 6.51082 15.2803 6.44156C15.4711 6.37229 15.6699 6.32035 15.8767 6.28572C16.0834 6.25108 16.2583 6.23377 16.4015 6.23377Z" fill="url(#paint1_linear_31779_1561)"/>
<path d="M29.9237 11.6883C29.9237 9.24675 30.1065 7.27273 30.4723 5.76623C30.854 4.24242 31.4742 3.05628 32.3329 2.20779C33.2076 1.34199 34.3526 0.761905 35.7679 0.467533C37.1833 0.155844 38.9326 0 41.0158 0C41.318 0 41.5326 0.181819 41.6599 0.545455C41.7871 0.891775 41.8507 1.22944 41.8507 1.55844C41.8507 1.88745 41.7871 2.23377 41.6599 2.5974C41.5326 2.94372 41.318 3.11688 41.0158 3.11688C39.2347 3.11688 37.8273 3.22944 36.7936 3.45455C35.76 3.67965 34.9807 3.93939 34.4559 4.23377C33.9311 4.52814 33.5972 4.83117 33.4541 5.14286C33.3268 5.45455 33.2632 5.68831 33.2632 5.84416C33.2632 6.25974 33.3905 6.46753 33.6449 6.46753C33.8675 6.46753 34.2015 6.38961 34.6468 6.23377C35.092 6.06061 35.6645 5.97403 36.3643 5.97403C37.3184 5.97403 38.1851 6.14719 38.9644 6.49351C39.7595 6.82251 40.4433 7.2987 41.0158 7.92208C41.5883 8.54546 42.0256 9.29004 42.3278 10.1558C42.6458 11.0043 42.8049 11.9481 42.8049 12.987C42.8049 14.026 42.6458 14.9784 42.3278 15.8442C42.0256 16.6926 41.5883 17.4286 41.0158 18.0519C40.4433 18.6753 39.7595 19.1515 38.9644 19.4805C38.1851 19.8268 37.3184 20 36.3643 20C35.4101 20 34.5354 19.8355 33.7403 19.5065C32.9611 19.1948 32.2852 18.7013 31.7127 18.026C31.1402 17.3506 30.6949 16.4935 30.3769 15.4545C30.0747 14.3983 29.9237 13.1429 29.9237 11.6883ZM33.0247 12.987C33.0247 14.4242 33.3109 15.4372 33.8834 16.026C34.4559 16.5974 35.2829 16.8831 36.3643 16.8831C37.4457 16.8831 38.2726 16.5974 38.8451 16.026C39.4176 15.4372 39.7038 14.4242 39.7038 12.987C39.7038 11.5498 39.4176 10.5455 38.8451 9.97403C38.2726 9.38528 37.4457 9.09091 36.3643 9.09091C35.2829 9.09091 34.4559 9.38528 33.8834 9.97403C33.3109 10.5455 33.0247 11.5498 33.0247 12.987Z" fill="url(#paint2_linear_31779_1561)"/>
<path d="M51.8116 5.97403C52.1773 5.97403 52.4795 6 52.718 6.05195C52.9725 6.1039 53.219 6.1645 53.4575 6.23377C53.7119 6.30303 53.9823 6.36364 54.2685 6.41559C54.5707 6.46753 54.9444 6.49351 55.3897 6.49351C55.6123 6.49351 55.7952 6.48485 55.9383 6.46753C56.0973 6.45022 56.2723 6.4329 56.4631 6.41559C56.7494 6.38095 56.9799 6.45888 57.1549 6.64935C57.3298 6.83983 57.4093 7.09091 57.3934 7.4026C57.3775 7.88745 57.3537 8.34632 57.3219 8.77922C57.306 9.21212 57.2821 9.65368 57.2503 10.1039C57.2344 10.5368 57.2185 10.987 57.2026 11.4545C57.1867 11.9221 57.1787 12.4329 57.1787 12.987C57.1787 13.6277 57.1867 14.2078 57.2026 14.7273C57.2344 15.2294 57.2662 15.7056 57.298 16.1558C57.3298 16.6061 57.3537 17.0476 57.3696 17.4805C57.4014 17.8961 57.4173 18.3463 57.4173 18.8312C57.4173 18.987 57.3537 19.1255 57.2264 19.2468C57.0992 19.368 56.9402 19.4632 56.7494 19.5325C56.5585 19.6017 56.3597 19.6537 56.153 19.6883C55.9463 19.7229 55.7713 19.7403 55.6282 19.7403C55.4851 19.7403 55.3102 19.7229 55.1034 19.6883C54.8967 19.6537 54.6979 19.6017 54.5071 19.5325C54.3162 19.4632 54.1572 19.368 54.03 19.2468C53.9028 19.1255 53.8392 18.987 53.8392 18.8312C53.8392 18.3463 53.8471 17.8961 53.863 17.4805C53.8789 17.0476 53.8869 16.6061 53.8869 16.1558C53.9028 15.7056 53.9187 15.2294 53.9346 14.7273C53.9505 14.2078 53.9584 13.6277 53.9584 12.987C53.9584 12.2771 53.9425 11.6797 53.9107 11.1948C53.8948 10.6926 53.8153 10.2857 53.6722 9.97403C53.545 9.66234 53.3382 9.43723 53.052 9.2987C52.7657 9.16017 52.3523 9.09091 51.8116 9.09091C51.1754 9.09091 50.6348 9.27273 50.1895 9.63636C49.7442 10 49.3784 10.4675 49.0922 11.039C48.8059 11.6104 48.5754 12.2597 48.4004 12.987C48.2414 13.7143 48.1221 14.4416 48.0426 15.1688C47.9631 15.8788 47.9154 16.5628 47.8995 17.2208C47.8836 17.8615 47.8756 18.3983 47.8756 18.8312C47.8756 18.987 47.812 19.1255 47.6848 19.2468C47.5576 19.368 47.3986 19.4632 47.2077 19.5325C47.0169 19.6017 46.8181 19.6537 46.6114 19.6883C46.4046 19.7229 46.2297 19.7403 46.0866 19.7403C45.9434 19.7403 45.7685 19.7229 45.5618 19.6883C45.355 19.6537 45.1563 19.6017 44.9654 19.5325C44.7746 19.4632 44.6156 19.368 44.4883 19.2468C44.3611 19.1255 44.2975 18.987 44.2975 18.8312C44.2975 18.0693 44.3373 17.2294 44.4168 16.3117C44.4963 15.3766 44.6394 14.4329 44.8462 13.4805C45.0529 12.5281 45.3312 11.6017 45.681 10.7013C46.0468 9.80087 46.508 9.00433 47.0646 8.31169C47.6212 7.60173 48.2891 7.03896 49.0683 6.62338C49.8476 6.19048 50.762 5.97403 51.8116 5.97403Z" fill="url(#paint3_linear_31779_1561)"/>
<path d="M61.4034 6.23377C61.5465 6.23377 61.7215 6.25108 61.9282 6.28572C62.1349 6.32035 62.3337 6.37229 62.5246 6.44156C62.7154 6.51082 62.8744 6.60606 63.0016 6.72727C63.1289 6.84849 63.1925 6.98701 63.1925 7.14286C63.1925 7.62771 63.1845 8.08658 63.1686 8.51948C63.1527 8.93507 63.1368 9.36797 63.1209 9.81818C63.1209 10.2684 63.113 10.7446 63.0971 11.2468C63.0812 11.7489 63.0732 12.329 63.0732 12.987C63.0732 14.4242 63.3197 15.4372 63.8127 16.026C64.3057 16.5974 65.0929 16.8831 66.1742 16.8831C67.2556 16.8831 68.0428 16.5974 68.5358 16.026C69.0288 15.4372 69.2753 14.4242 69.2753 12.987C69.2753 12.329 69.2673 11.7489 69.2514 11.2468C69.2355 10.7446 69.2196 10.2684 69.2037 9.81818C69.2037 9.36797 69.1958 8.93507 69.1799 8.51948C69.1639 8.08658 69.156 7.62771 69.156 7.14286C69.156 6.98701 69.2196 6.84849 69.3468 6.72727C69.4741 6.60606 69.6331 6.51082 69.8239 6.44156C70.0147 6.37229 70.2135 6.32035 70.4203 6.28572C70.627 6.25108 70.8019 6.23377 70.9451 6.23377C71.0882 6.23377 71.2631 6.25108 71.4698 6.28572C71.6766 6.32035 71.8754 6.37229 72.0662 6.44156C72.257 6.51082 72.4161 6.60606 72.5433 6.72727C72.6705 6.84849 72.7341 6.98701 72.7341 7.14286C72.7341 7.62771 72.7182 8.08658 72.6864 8.51948C72.6705 8.93507 72.6467 9.36797 72.6149 9.81818C72.583 10.2684 72.5512 10.7446 72.5194 11.2468C72.5035 11.7489 72.4956 12.329 72.4956 12.987C72.4956 13.5411 72.5035 14.0519 72.5194 14.5195C72.5353 14.987 72.5512 15.4459 72.5671 15.8961C72.5989 16.329 72.6228 16.7619 72.6387 17.1948C72.6705 17.6277 72.6944 18.0866 72.7103 18.5714C72.7262 18.8831 72.6467 19.1342 72.4717 19.3247C72.2968 19.5152 72.0662 19.5931 71.78 19.5584C71.5891 19.5411 71.4142 19.5238 71.2552 19.5065C71.112 19.4892 70.9292 19.4805 70.7065 19.4805C70.1658 19.4805 69.6887 19.5065 69.2753 19.5584C68.8777 19.6104 68.504 19.671 68.1541 19.7403C67.8202 19.8095 67.4942 19.8701 67.1761 19.9221C66.874 19.974 66.54 20 66.1742 20C65.2201 20 64.3454 19.8268 63.5503 19.4805C62.771 19.1515 62.0952 18.6753 61.5227 18.0519C60.9502 17.4286 60.5049 16.6926 60.1869 15.8442C59.8847 14.9784 59.7336 14.026 59.7336 12.987C59.7336 12.329 59.7257 11.7489 59.7098 11.2468C59.6939 10.7446 59.678 10.2684 59.6621 9.81818C59.6621 9.36797 59.6541 8.93507 59.6382 8.51948C59.6223 8.08658 59.6144 7.62771 59.6144 7.14286C59.6144 6.98701 59.678 6.84849 59.8052 6.72727C59.9324 6.60606 60.0914 6.51082 60.2823 6.44156C60.4731 6.37229 60.6719 6.32035 60.8786 6.28572C61.0854 6.25108 61.2603 6.23377 61.4034 6.23377Z" fill="url(#paint4_linear_31779_1561)"/>
<path d="M74.6871 12.987C74.6871 11.9481 74.8381 11.0043 75.1403 10.1558C75.4584 9.29004 75.9036 8.54546 76.4761 7.92208C77.0486 7.2987 77.7245 6.82251 78.5037 6.49351C79.2989 6.14719 80.1735 5.97403 81.1277 5.97403C82.0818 5.97403 82.9485 6.14719 83.7278 6.49351C84.5229 6.82251 85.2067 7.2987 85.7792 7.92208C86.3517 8.54546 86.7891 9.29004 87.0912 10.1558C87.4093 11.0043 87.5683 11.9481 87.5683 12.987C87.5683 14.026 87.4093 14.9784 87.0912 15.8442C86.7891 16.6926 86.3517 17.4286 85.7792 18.0519C85.2067 18.6753 84.5229 19.1515 83.7278 19.4805C82.9485 19.8268 82.0818 20 81.1277 20C80.1735 20 79.2989 19.8268 78.5037 19.4805C77.7245 19.1515 77.0486 18.6753 76.4761 18.0519C75.9036 17.4286 75.4584 16.6926 75.1403 15.8442C74.8381 14.9784 74.6871 14.026 74.6871 12.987ZM77.7881 12.987C77.7881 14.4242 78.0744 15.4372 78.6469 16.026C79.2194 16.5974 80.0463 16.8831 81.1277 16.8831C82.2091 16.8831 83.036 16.5974 83.6085 16.026C84.181 15.4372 84.4673 14.4242 84.4673 12.987C84.4673 11.5498 84.181 10.5455 83.6085 9.97403C83.036 9.38528 82.2091 9.09091 81.1277 9.09091C80.0463 9.09091 79.2194 9.38528 78.6469 9.97403C78.0744 10.5455 77.7881 11.5498 77.7881 12.987Z" fill="url(#paint5_linear_31779_1561)"/>
<path d="M91.3094 1.03896C91.4525 1.03896 91.6274 1.05628 91.8342 1.09091C92.0409 1.12554 92.2397 1.17749 92.4305 1.24675C92.6213 1.31602 92.7804 1.41126 92.9076 1.53247C93.0348 1.65368 93.0984 1.79221 93.0984 1.94805C93.0984 2.4329 93.0905 3.0303 93.0746 3.74026C93.0587 4.4329 93.0428 5.16883 93.0269 5.94805C93.0269 6.70996 93.0189 7.48052 93.003 8.25974C92.9871 9.02165 92.9791 9.7316 92.9791 10.3896C92.9791 11.0303 92.9871 11.7403 93.003 12.5195C93.0189 13.2987 93.0269 14.0779 93.0269 14.8571C93.0428 15.619 93.0587 16.355 93.0746 17.0649C93.0905 17.7576 93.0984 18.3463 93.0984 18.8312C93.0984 18.987 93.0348 19.1255 92.9076 19.2468C92.7804 19.368 92.6213 19.4632 92.4305 19.5325C92.2397 19.6017 92.0409 19.6537 91.8342 19.6883C91.6274 19.7229 91.4525 19.7403 91.3094 19.7403C91.1662 19.7403 90.9913 19.7229 90.7846 19.6883C90.5778 19.6537 90.3791 19.6017 90.1882 19.5325C89.9974 19.4632 89.8384 19.368 89.7111 19.2468C89.5839 19.1255 89.5203 18.987 89.5203 18.8312C89.5203 18.3463 89.5283 17.7576 89.5442 17.0649C89.5601 16.355 89.568 15.619 89.568 14.8571C89.5839 14.0779 89.5998 13.2987 89.6157 12.5195C89.6316 11.7403 89.6396 11.0303 89.6396 10.3896C89.6396 9.7316 89.6316 9.02165 89.6157 8.25974C89.5998 7.48052 89.5839 6.70996 89.568 5.94805C89.568 5.16883 89.5601 4.4329 89.5442 3.74026C89.5283 3.0303 89.5203 2.4329 89.5203 1.94805C89.5203 1.79221 89.5839 1.65368 89.7111 1.53247C89.8384 1.41126 89.9974 1.31602 90.1882 1.24675C90.3791 1.17749 90.5778 1.12554 90.7846 1.09091C90.9913 1.05628 91.1662 1.03896 91.3094 1.03896Z" fill="url(#paint6_linear_31779_1561)"/>
<path d="M95.0598 12.987C95.0598 11.9481 95.2108 11.0043 95.513 10.1558C95.831 9.29004 96.2763 8.54546 96.8488 7.92208C97.4213 7.2987 98.0972 6.82251 98.8764 6.49351C99.6716 6.14719 100.546 5.97403 101.5 5.97403C101.866 5.97403 102.2 6 102.502 6.05195C102.82 6.1039 103.146 6.1645 103.48 6.23377C103.83 6.30303 104.204 6.36364 104.601 6.41559C105.015 6.46753 105.492 6.49351 106.033 6.49351C106.255 6.49351 106.438 6.48485 106.581 6.46753C106.74 6.45022 106.915 6.4329 107.106 6.41559C107.392 6.38095 107.623 6.45888 107.798 6.64935C107.973 6.83983 108.052 7.09091 108.036 7.4026C108.02 7.88745 107.997 8.34632 107.965 8.77922C107.949 9.21212 107.925 9.65368 107.893 10.1039C107.877 10.5368 107.861 10.987 107.846 11.4545C107.83 11.9221 107.822 12.4329 107.822 12.987C107.822 13.5411 107.83 14.0519 107.846 14.5195C107.861 14.987 107.877 15.4459 107.893 15.8961C107.925 16.329 107.949 16.7619 107.965 17.1948C107.997 17.6277 108.02 18.0866 108.036 18.5714C108.052 18.8831 107.973 19.1342 107.798 19.3247C107.623 19.5152 107.392 19.5931 107.106 19.5584C106.915 19.5411 106.74 19.5238 106.581 19.5065C106.438 19.4892 106.255 19.4805 106.033 19.4805C105.444 19.4805 104.943 19.5065 104.53 19.5584C104.116 19.6104 103.743 19.671 103.409 19.7403C103.075 19.8095 102.765 19.8701 102.478 19.9221C102.192 19.974 101.866 20 101.5 20C100.546 20 99.6716 19.8268 98.8764 19.4805C98.0972 19.1515 97.4213 18.6753 96.8488 18.0519C96.2763 17.4286 95.831 16.6926 95.513 15.8442C95.2108 14.9784 95.0598 14.026 95.0598 12.987ZM101.5 16.8831C102.582 16.8831 103.409 16.5974 103.981 16.026C104.554 15.4372 104.84 14.4242 104.84 12.987C104.84 11.5498 104.554 10.5455 103.981 9.97403C103.409 9.38528 102.582 9.09091 101.5 9.09091C100.419 9.09091 99.592 9.38528 99.0195 9.97403C98.447 10.5455 98.1608 11.5498 98.1608 12.987C98.1608 14.4242 98.447 15.4372 99.0195 16.026C99.592 16.5974 100.419 16.8831 101.5 16.8831Z" fill="url(#paint7_linear_31779_1561)"/>
<path d="M110.499 18.8312C110.499 18.3463 110.507 17.8961 110.523 17.4805C110.538 17.0476 110.546 16.6061 110.546 16.1558C110.562 15.7056 110.578 15.2294 110.594 14.7273C110.61 14.2078 110.618 13.6277 110.618 12.987C110.618 12.4329 110.61 11.9221 110.594 11.4545C110.594 10.987 110.586 10.5368 110.57 10.1039C110.554 9.65368 110.538 9.21212 110.523 8.77922C110.507 8.34632 110.499 7.88745 110.499 7.4026C110.499 7.09091 110.586 6.84849 110.761 6.67532C110.952 6.48485 111.182 6.39827 111.453 6.41559C111.644 6.4329 111.811 6.45022 111.954 6.46753C112.113 6.48485 112.304 6.49351 112.526 6.49351C113.067 6.49351 113.536 6.46753 113.934 6.41559C114.347 6.36364 114.721 6.30303 115.055 6.23377C115.405 6.1645 115.739 6.1039 116.057 6.05195C116.375 6 116.709 5.97403 117.059 5.97403C118.013 5.97403 118.879 6.14719 119.659 6.49351C120.454 6.82251 121.138 7.2987 121.71 7.92208C122.283 8.54546 122.72 9.29004 123.022 10.1558C123.34 11.0043 123.499 11.9481 123.499 12.987C123.499 13.6277 123.507 14.2078 123.523 14.7273C123.539 15.2294 123.547 15.7056 123.547 16.1558C123.563 16.6061 123.579 17.0476 123.595 17.4805C123.61 17.8961 123.618 18.3463 123.618 18.8312C123.618 18.987 123.555 19.1255 123.428 19.2468C123.3 19.368 123.141 19.4632 122.951 19.5325C122.76 19.6017 122.561 19.6537 122.354 19.6883C122.147 19.7229 121.972 19.7403 121.829 19.7403C121.686 19.7403 121.511 19.7229 121.305 19.6883C121.098 19.6537 120.899 19.6017 120.708 19.5325C120.517 19.4632 120.358 19.368 120.231 19.2468C120.104 19.1255 120.04 18.987 120.04 18.8312C120.04 18.3463 120.048 17.8961 120.064 17.4805C120.08 17.0476 120.088 16.6061 120.088 16.1558C120.104 15.7056 120.12 15.2294 120.136 14.7273C120.152 14.2078 120.16 13.6277 120.16 12.987C120.16 11.5498 119.913 10.5455 119.42 9.97403C118.927 9.38528 118.14 9.09091 117.059 9.09091C115.977 9.09091 115.19 9.38528 114.697 9.97403C114.204 10.5455 113.958 11.5498 113.958 12.987C113.958 13.6277 113.965 14.2078 113.981 14.7273C113.997 15.2294 114.005 15.7056 114.005 16.1558C114.021 16.6061 114.037 17.0476 114.053 17.4805C114.069 17.8961 114.077 18.3463 114.077 18.8312C114.077 18.987 114.013 19.1255 113.886 19.2468C113.759 19.368 113.6 19.4632 113.409 19.5325C113.218 19.6017 113.019 19.6537 112.813 19.6883C112.606 19.7229 112.431 19.7403 112.288 19.7403C112.145 19.7403 111.97 19.7229 111.763 19.6883C111.556 19.6537 111.357 19.6017 111.167 19.5325C110.976 19.4632 110.817 19.368 110.689 19.2468C110.562 19.1255 110.499 18.987 110.499 18.8312Z" fill="url(#paint8_linear_31779_1561)"/>
<path d="M131.773 5.97403C131.964 5.97403 132.187 5.99134 132.441 6.02598C132.696 6.06061 132.95 6.1039 133.205 6.15585C133.475 6.19048 133.737 6.23377 133.992 6.28572C134.246 6.32035 134.461 6.35498 134.636 6.38961C134.938 6.44156 135.089 6.30303 135.089 5.97403C135.073 5.59307 135.049 5.05628 135.018 4.36364C135.002 3.65368 134.994 2.84849 134.994 1.94805C134.994 1.79221 135.049 1.65368 135.161 1.53247C135.288 1.41126 135.431 1.31602 135.59 1.24675C135.765 1.17749 135.948 1.12554 136.139 1.09091C136.345 1.05628 136.52 1.03896 136.664 1.03896C136.807 1.03896 136.974 1.05628 137.164 1.09091C137.371 1.12554 137.554 1.17749 137.713 1.24675C137.888 1.31602 138.031 1.41126 138.143 1.53247C138.27 1.65368 138.333 1.79221 138.333 1.94805C138.333 2.58875 138.317 3.41126 138.286 4.41558C138.27 5.4026 138.246 6.42424 138.214 7.48052C138.182 8.51948 138.15 9.53247 138.119 10.5195C138.103 11.5065 138.095 12.329 138.095 12.987C138.095 13.5411 138.103 14.0519 138.119 14.5195C138.135 14.987 138.15 15.4459 138.166 15.8961C138.198 16.329 138.222 16.7619 138.238 17.1948C138.27 17.6277 138.294 18.0866 138.309 18.5714C138.325 18.8831 138.246 19.1342 138.071 19.3247C137.896 19.5152 137.665 19.5931 137.379 19.5584C137.188 19.5411 137.013 19.5238 136.854 19.5065C136.711 19.4892 136.528 19.4805 136.306 19.4805C135.765 19.4805 135.288 19.5065 134.874 19.5584C134.477 19.6104 134.103 19.671 133.753 19.7403C133.419 19.8095 133.093 19.8701 132.775 19.9221C132.473 19.974 132.139 20 131.773 20C130.803 20 129.921 19.8268 129.126 19.4805C128.346 19.1515 127.671 18.684 127.098 18.0779C126.541 17.4545 126.104 16.7186 125.786 15.8701C125.484 15.0043 125.333 14.0433 125.333 12.987C125.333 11.9307 125.484 10.9784 125.786 10.1299C126.104 9.26407 126.541 8.52814 127.098 7.92208C127.671 7.2987 128.346 6.82251 129.126 6.49351C129.921 6.14719 130.803 5.97403 131.773 5.97403ZM131.773 16.8831C132.855 16.8831 133.682 16.5974 134.254 16.026C134.827 15.4372 135.113 14.4242 135.113 12.987C135.113 11.5498 134.827 10.5455 134.254 9.97403C133.682 9.38528 132.855 9.09091 131.773 9.09091C130.692 9.09091 129.865 9.38528 129.293 9.97403C128.72 10.5455 128.434 11.5498 128.434 12.987C128.434 14.4242 128.72 15.4372 129.293 16.026C129.865 16.5974 130.692 16.8831 131.773 16.8831Z" fill="url(#paint9_linear_31779_1561)"/>
<defs>
<linearGradient id="paint0_linear_31779_1561" x1="138.333" y1="9.51794e-06" x2="-44.4513" y2="13.7557" gradientUnits="userSpaceOnUse">
<stop offset="0.294797" stop-color="#F83600"/>
<stop offset="1" stop-color="#F9D423"/>
</linearGradient>
<linearGradient id="paint1_linear_31779_1561" x1="138.333" y1="9.51794e-06" x2="-44.4513" y2="13.7557" gradientUnits="userSpaceOnUse">
<stop offset="0.294797" stop-color="#F83600"/>
<stop offset="1" stop-color="#F9D423"/>
</linearGradient>
<linearGradient id="paint2_linear_31779_1561" x1="138.333" y1="9.51794e-06" x2="-44.4513" y2="13.7557" gradientUnits="userSpaceOnUse">
<stop offset="0.294797" stop-color="#F83600"/>
<stop offset="1" stop-color="#F9D423"/>
</linearGradient>
<linearGradient id="paint3_linear_31779_1561" x1="138.333" y1="9.51794e-06" x2="-44.4513" y2="13.7557" gradientUnits="userSpaceOnUse">
<stop offset="0.294797" stop-color="#F83600"/>
<stop offset="1" stop-color="#F9D423"/>
</linearGradient>
<linearGradient id="paint4_linear_31779_1561" x1="138.333" y1="9.51794e-06" x2="-44.4513" y2="13.7557" gradientUnits="userSpaceOnUse">
<stop offset="0.294797" stop-color="#F83600"/>
<stop offset="1" stop-color="#F9D423"/>
</linearGradient>
<linearGradient id="paint5_linear_31779_1561" x1="138.333" y1="9.51794e-06" x2="-44.4513" y2="13.7557" gradientUnits="userSpaceOnUse">
<stop offset="0.294797" stop-color="#F83600"/>
<stop offset="1" stop-color="#F9D423"/>
</linearGradient>
<linearGradient id="paint6_linear_31779_1561" x1="138.333" y1="9.51794e-06" x2="-44.4513" y2="13.7557" gradientUnits="userSpaceOnUse">
<stop offset="0.294797" stop-color="#F83600"/>
<stop offset="1" stop-color="#F9D423"/>
</linearGradient>
<linearGradient id="paint7_linear_31779_1561" x1="138.333" y1="9.51794e-06" x2="-44.4513" y2="13.7557" gradientUnits="userSpaceOnUse">
<stop offset="0.294797" stop-color="#F83600"/>
<stop offset="1" stop-color="#F9D423"/>
</linearGradient>
<linearGradient id="paint8_linear_31779_1561" x1="138.333" y1="9.51794e-06" x2="-44.4513" y2="13.7557" gradientUnits="userSpaceOnUse">
<stop offset="0.294797" stop-color="#F83600"/>
<stop offset="1" stop-color="#F9D423"/>
</linearGradient>
<linearGradient id="paint9_linear_31779_1561" x1="138.333" y1="9.51794e-06" x2="-44.4513" y2="13.7557" gradientUnits="userSpaceOnUse">
<stop offset="0.294797" stop-color="#F83600"/>
<stop offset="1" stop-color="#F9D423"/>
</linearGradient>
</defs>
</svg>
